PathFileType	4	(X/Y/Z)	Patient4_TMGait_0pt8_01_left_10.trc.trc
DataRate	CameraRate	NumFrames	NumMarkers	Units	OrigDataRate	OrigDataStartFrame	OrigNumFrames
89.743589743590	89.743589743590	6	33	mm	89.743589743590	18	       141
Frame#	Time	Sacral			L.Shoulder			Chest			R.Shoulder			Neck			R.ASIS			L.ASIS			R.Thigh.Superior			R.Thigh.Lateral			R.Thigh.Inferior			R.Patella			L.Thigh.Superior			L.Thigh.Lateral			L.Thigh.Inferior			L.Patella			L.Shank.Superior			L.Shank.Lateral			L.Shank.Inferior			R.Shank.Superior			R.Shank.Lateral			R.Shank.Inferior			R.Heel			R.Midfoot.Superior			R.Midfoot.Lateral			R.Toe			L.Heel			L.Midfoot.Lateral			L.Midfoot.Superior			L.Toe			L.Elbow			L.Wrist			R.Elbow			R.Wrist			
		X1	Y1	Z1	X2	Y2	Z2	X3	Y3	Z3	X4	Y4	Z4	X5	Y5	Z5	X6	Y6	Z6	X7	Y7	Z7	X8	Y8	Z8	X9	Y9	Z9	X10	Y10	Z10	X11	Y11	Z11	X12	Y12	Z12	X13	Y13	Z13	X14	Y14	Z14	X15	Y15	Z15	X16	Y16	Z16	X17	Y17	Z17	X18	Y18	Z18	X19	Y19	Z19	X20	Y20	Z20	X21	Y21	Z21	X22	Y22	Z22	X23	Y23	Z23	X24	Y24	Z24	X25	Y25	Z25	X26	Y26	Z26	X27	Y27	Z27	X28	Y28	Z28	X29	Y29	Z29	X30	Y30	Z30	X31	Y31	Z31	X32	Y32	Z32	X33	Y33	Z33	

18	10.569428571429	859.669017261779	1005.022914160957	534.533761661171	1025.505171217272	1422.344191939914	332.415111109899	1142.462532535704	1354.462668400848	484.660401227848	1077.980240926152	1432.957944270303	664.570244958499	1026.821733742790	1486.964652775071	488.516312027448	1088.147874656556	937.364951656002	641.946601668105	1061.856073115625	948.834543172655	365.160320906846	1080.165028151738	723.629913635262	618.143388003334	969.246331766916	633.527941811928	676.215301685673	1030.515272890624	565.673371945782	599.680676850036	1010.401196104181	483.166663963199	603.803001648211	1138.008243334853	774.497952116201	396.445378637477	1100.712828464497	647.977352890337	307.476872279810	1205.412828202786	591.529581313758	372.130998782854	1237.558792003151	529.444546629029	365.350566341576	1223.442225834088	457.657083561130	353.362275937920	1164.320334293247	325.760213973786	297.796381641885	1256.010936006763	229.355398938022	351.060966009378	974.032853200205	400.493709436591	607.942781402385	890.801398045155	302.231236020219	662.784235903717	929.309350131643	205.309616968572	600.407688403168	787.226688418135	43.930875571121	557.889286905991	956.920239972217	96.739218193081	604.323574031200	865.679808683054	36.776832157052	636.573995431426	1074.441543040515	42.019416066711	639.002132943748	1180.184387924878	47.210789362528	387.105289139524	1256.338587790767	50.783925917635	308.983195552106	1324.435172273199	131.614886510978	328.606496085247	1459.417793471950	105.674035914717	306.841390564745	906.121126270413	1083.580561130425	249.692157970060	874.819873522064	827.109398091967	273.965369838557	1201.488434041122	1118.293601528595	791.736371668181	1451.540806201027	1096.694530144320	738.782547068393	
19	10.580571428571	859.734929121645	1003.890724157047	532.722551352864	1025.829572146240	1421.099177859576	331.088083977176	1142.569486311473	1353.038158104423	483.435740962929	1077.836771437747	1431.689015855322	663.141111236924	1026.683872968809	1485.485081095305	487.269811013471	1087.876634430846	935.546320584426	640.530806288727	1062.231631245422	947.236852862460	363.634764958936	1077.937470950312	721.567985026952	616.600883652747	966.319186059503	632.493011848821	675.082833982785	1026.524677391112	564.127521248766	598.184883073123	1005.639091138903	481.607122550453	602.434619234148	1137.172440462434	772.114044731532	395.964047306930	1099.329137084553	645.422531023695	307.092273416901	1203.528479587040	588.895611838323	372.238068840448	1235.529914988134	527.500911853903	366.135231312121	1222.477274546048	455.876408495512	354.020353070790	1165.433389506300	322.852810012434	299.015121223671	1258.639861212213	228.153708722176	352.783760147869	968.386887908575	399.180169004506	606.869705854252	884.444423494739	301.847360337114	662.199024698096	921.552754835060	204.501328853118	599.811331105093	778.189699288338	43.727923861808	557.891185020467	947.731572744833	96.556090837989	604.111479277369	856.603262553265	36.669427112697	636.608394930222	1065.356330867104	42.061355111797	639.026768393556	1185.640993902087	45.227965261722	389.113086615158	1262.167612118927	49.426847310311	311.338559837026	1329.131517291070	131.005267173543	331.121002289967	1464.616207079163	106.583224677668	310.189066432869	900.562852586251	1085.080423552031	249.012410747613	862.473686648157	829.736130690815	274.891317547225	1206.382263814760	1119.751228668449	789.265160663166	1456.484430632710	1112.257879452861	734.468797053078	
20	10.591714285714	859.912304065963	1002.620468736495	530.655679274706	1026.167997960289	1419.787777529956	329.619407210093	1142.684119903092	1351.603372326336	482.098384193985	1077.605405585077	1430.368415795353	661.581015085285	1026.542001582010	1483.941501601618	485.884667508887	1087.735260580987	933.655230573591	638.921346963521	1062.846922744132	945.596389988115	361.975443652000	1076.131238108366	719.484162231016	614.856519484329	963.952833444577	631.304165366126	673.765736016709	1023.165677879014	562.485732639032	596.503850789486	1001.476938082505	479.885584515211	600.848082430104	1136.951631517446	769.941047272465	395.364931109027	1098.446877339944	642.874743938983	306.949635782750	1202.289823175231	586.436221927400	372.306662586916	1233.911082934907	525.276421138300	366.901835150143	1221.439433777899	453.605789820914	354.765467047584	1165.296390231215	319.994951598796	300.577240694221	1259.227787796717	226.318130669150	354.785077680280	963.274584647517	397.680156645865	605.599454994160	878.540868240730	301.414723991081	661.509056399409	914.034238576730	203.595962373627	599.108402004856	769.183237611158	43.569485805893	557.887050665003	938.595140749809	96.385825479573	603.876966356505	847.565578750068	36.573634503795	636.627325311929	1056.300812575210	42.038627798384	639.057935985006	1187.572019498883	43.468114797075	391.485009959901	1264.241659934679	47.956150486208	313.846140724274	1330.823596599632	129.458576887979	333.933989630128	1466.445998527858	105.390012101067	313.320691228537	895.486657220245	1086.471435571355	248.202714900253	851.237548293411	832.281839308294	275.641210115846	1210.816842005724	1121.072761972758	786.684557842739	1460.165327377686	1127.179395897628	730.222147933504	
21	10.602857142857	860.198420067280	1001.228515735585	528.336328791316	1026.518158736931	1418.430951514729	328.011365354254	1142.803764548484	1350.183969392914	480.651230239775	1077.275268903801	1429.009470589525	659.899658274991	1026.396193867533	1482.356300863528	484.363305204159	1087.728348007962	931.716354881399	637.136502730185	1063.701234046165	943.933649292522	360.192700023312	1074.767132344545	717.388341294866	612.958659791394	962.121230332384	629.975380823398	672.260582937596	1020.441146099338	560.742783876203	594.672717264682	997.908527706094	477.995655558224	599.053064575523	1137.350732129038	767.969186589463	394.618462539358	1098.036919743858	640.365994168791	307.026870297322	1201.672550037501	584.155129342391	372.349582336305	1232.676392759632	522.794239430208	367.685219329946	1220.376233986840	450.909389837154	355.599636483614	1164.117455690370	317.167740655849	302.351220202347	1258.045853076798	223.867031008000	356.986412403891	958.685150583406	396.017322201096	604.143762245876	873.064428326189	300.954308401487	660.704918322526	906.746684706735	202.618322685789	598.305968639366	760.207212721230	43.479182855106	557.880875905049	929.525601488716	96.241440333151	603.626025656325	838.570883083187	36.501865510475	636.626387762399	1047.284383912600	41.942868813981	639.099912189203	1186.303848117582	41.884306116241	394.022386417599	1262.958433644677	46.338251285558	316.357568936157	1329.890917670358	126.973275434116	336.967863790101	1465.340448882080	102.102493971843	316.262647465155	890.943487138066	1087.714963701581	247.254092652410	841.151251062189	834.676172642625	276.163034121509	1214.775845904139	1122.233262021317	784.020752921692	1462.644131639335	1141.339778245576	726.061591972288	
22	10.614000000000	860.587551220122	999.743683718104	525.779562640252	1026.882315654786	1417.057007438737	326.268377237993	1142.929680531131	1348.810556367512	479.099421665564	1076.845092128978	1427.635336852408	658.109747331113	1026.250358795752	1480.761267592516	482.709926674973	1087.858067444907	929.760150930946	635.200757054930	1064.781370879555	942.282928507078	358.299859765300	1073.842779519607	715.297616783649	610.956257458600	960.774043612056	628.535851679873	670.568941308978	1018.327586888214	558.906921095217	592.730163477666	994.910673454890	475.939853344448	597.071950640727	1138.338257341419	766.186404619203	393.699544706232	1098.049429320834	637.947432626614	307.261211275516	1201.623284717409	582.062695941538	372.360745794328	1231.783566773358	520.116666419423	368.494067367610	1219.339023765699	447.901359468210	356.489693731598	1162.164156571331	314.397857876303	304.173939956451	1255.445466183804	220.909723494981	359.277668280561	954.588159991600	394.229072682847	602.523848599519	867.968750520186	300.500686758671	659.784950972556	899.674016274215	201.607883106217	597.419193192939	751.259051877585	43.496053776856	557.878911797942	920.537315102432	96.136832925332	603.367376763998	829.621664366601	36.474688996102	636.605327400998	1038.315099410326	41.771147356618	639.154787031327	1182.315532338280	40.486375354086	396.522243618181	1258.873160217539	44.608674586168	318.729927507223	1326.812210607562	123.671358956319	340.115160554125	1461.837326294045	96.939910801789	319.043287148811	886.981740537567	1088.776931791347	246.156933342634	832.255804088555	836.854813045887	276.401196046397	1218.234374486036	1123.204173702837	781.300793231295	1463.989800617387	1154.629143710064	722.008458124864	
23	10.625142857143	861.071283832508	998.207683779538	523.013116820429	1027.265009997197	1415.702848042981	324.398188731882	1143.065890405822	1347.519773404371	477.450767245304	1076.324596533320	1426.280846562274	656.227419272261	1026.111643491956	1479.199103979510	480.932210487841	1088.122435918605	927.824437245874	633.139406902749	1066.060099344056	940.694178771108	356.310921195889	1073.334395614050	713.241146807590	608.890917757830	959.848426298228	627.030038882389	668.697405168282	1016.785791930277	557.003652669213	590.714314173739	992.456116145473	473.731771696419	594.941705983904	1139.849551599013	764.592066646409	392.591229045629	1098.430027230573	635.694153726724	307.554546349670	1202.070263188813	580.183589802323	372.312841775743	1231.187779535838	517.348017243075	369.299436529695	1218.382582973537	444.737296116025	357.369870118098	1159.732935586479	311.754456070093	305.866497129069	1251.815697380541	217.626962128225	361.527617865752	950.944186074454	392.364432388913	600.770542384584	863.199766014494	300.102908239008	658.757425497000	892.798600240838	200.618802018882	596.471838260510	742.336135731424	43.679442105232	557.890618172579	911.646901247764	96.086305978114	603.113605735840	820.720032088183	36.522846685811	636.568768325149	1029.399397814888	41.526473697289	639.221868987763	1176.183258370703	39.314802709322	398.803915757760	1252.629381214876	42.851161953605	320.840000948487	1322.099467568677	119.780880769281	343.242264425368	1456.511849652765	90.322125316127	321.669484704780	883.648668353932	1089.629229924008	244.902116171210	824.594620058898	838.759463155640	276.299614136837	1221.158047734650	1123.953964260377	778.552504497269	1464.277268676880	1166.946890030722	718.087206595672	
